<svg xmlns="http://www.w3.org/2000/svg" stroke-miterlimit="10" style="fill-rule:nonzero;clip-rule:evenodd;stroke-linecap:round;stroke-linejoin:round;" version="1.1" viewBox="50 55 250 140" >
<g transform="rotate(-90)" transform-origin="center" transform-box="fill-box">
<path d="M106.261 4.94909C108.864 5.03812 111.083 5.13379 112.984 5.23608C114.885 5.33838 116.467 5.44731 117.794 5.56287C119.12 5.67844 120.191 5.80063 121.07 5.92946C121.95 6.05829 122.637 6.19375 123.195 6.33584C123.754 6.47794 124.184 6.62666 124.549 6.78202C124.915 6.93738 125.215 7.09937 125.513 7.268C125.927 7.75769 126.327 8.25192 126.712 8.75071C127.097 9.2495 127.469 9.75284 127.826 10.2607C128.183 10.7686 128.526 11.2811 128.855 11.7981C129.184 12.315 129.498 12.8366 129.799 13.3627C130.1 13.8888 130.386 14.4194 130.659 14.9546C130.931 15.4898 131.189 16.0296 131.433 16.5739C131.678 17.1182 131.908 17.667 132.124 18.2204C132.34 18.7738 132.541 19.3317 132.729 19.8942C132.917 20.4567 133.09 21.0238 133.25 21.5954C133.409 22.167 133.555 22.7432 133.686 23.3239C133.817 23.9046 133.934 24.4898 134.037 25.0796C134.14 25.6694 134.229 26.2638 134.303 26.8627C134.378 27.4616 134.439 28.0651 134.485 28.6731C134.532 29.2811 134.564 29.8936 134.582 30.5107C134.601 31.1278 134.605 31.7495 134.595 32.3757C134.585 33.0019 134.561 33.6327 134.522 34.268C133.418 36.0663 132.329 37.8701 131.257 39.6793C130.185 41.4885 129.129 43.3031 128.089 45.1232C127.049 46.9433 126.026 48.7688 125.019 50.5997C124.011 52.4307 123.02 54.2671 122.046 56.109C121.071 57.9508 120.113 59.7981 119.171 61.6509C118.228 63.5036 117.303 65.3618 116.393 67.2254C115.483 69.089 114.59 70.9581 113.713 72.8326C112.836 74.7071 111.975 76.5871 111.13 78.4725C110.286 80.3579 109.457 82.2488 108.645 84.1451C107.833 86.0414 107.037 87.9431 106.258 89.8503C105.478 91.7575 104.715 93.6701 103.968 95.5882C103.221 97.5063 102.49 99.4298 101.775 101.359C101.061 103.288 100.363 105.222 99.6806 107.162C98.9986 109.102 98.3329 111.047 97.6834 112.998C97.0339 114.949 96.4007 116.905 95.7837 118.867C95.1668 120.828 94.5661 122.795 93.9817 124.768C93.3592 124.132 92.7594 123.488 92.1822 122.836C91.605 122.184 91.0504 121.524 90.5184 120.857C89.9864 120.19 89.477 119.515 88.9902 118.832C88.5035 118.149 88.0393 117.458 87.5977 116.76C87.1562 116.062 86.7373 115.355 86.3409 114.642C85.9446 113.928 85.5709 113.206 85.2197 112.477C84.8686 111.747 84.5401 111.01 84.2342 110.265C83.9284 109.52 83.6451 108.768 83.3844 108.007C83.1237 107.247 82.8857 106.479 82.6702 105.703C82.4548 104.927 82.2619 104.143 82.0917 103.352C81.9215 102.56 81.7739 101.761 81.6489 100.954C81.5239 100.147 81.4215 99.3323 81.3417 98.5098C81.2619 97.6873 81.2048 96.8571 81.1702 96.0191C81.1357 95.1812 81.1237 94.3354 81.1344 93.482C81.1451 92.6285 81.1784 91.7672 81.2343 90.8982C81.2902 90.0293 81.3687 89.1525 81.4698 88.268L81.8761 86.6511L82.2824 85.0342L82.7066 83.424L83.1309 81.8137L83.5731 80.21L84.0153 78.6064L84.4755 77.0093L84.9356 75.4123L85.4138 73.8218L85.8919 72.2314L86.3881 70.6475L86.8842 69.0637L87.3983 67.4865L87.9125 65.9092L88.4446 64.3386L88.9767 62.768L88.9141 62.6743L88.8516 62.5805L88.789 62.4868L88.7265 62.393L88.6639 62.2993L88.6013 62.2055L88.5388 62.1118L88.4762 62.018L88.4137 61.9243L88.3511 61.8305L88.2885 61.7368L88.226 61.643L88.1634 61.5493L88.1008 61.4555L88.0383 61.3618L87.9757 61.268C87.2289 61.7536 86.489 62.2465 85.7561 62.7469C85.0231 63.2473 84.2971 63.7551 83.578 64.2703C82.8589 64.7856 82.1467 65.3082 81.4415 65.8382C80.7362 66.3683 80.0379 66.9057 79.3465 67.4506C78.6551 67.9955 77.9706 68.5478 77.293 69.1075C76.6155 69.6672 75.9448 70.2343 75.2811 70.8088C74.6174 71.3833 73.9606 71.9652 73.3107 72.5546C72.6609 73.1439 72.0179 73.7407 71.3819 74.3449C70.7459 74.949 70.1168 75.5606 69.4946 76.1796C68.8724 76.7986 68.2571 77.425 67.6488 78.0588C67.0405 78.6927 66.439 79.3339 65.8445 79.9825C65.25 80.6312 64.6625 81.2872 64.0818 81.9507C63.5011 82.6142 62.9274 83.285 62.3606 83.9633C61.7938 84.6416 61.2339 85.3273 60.6809 86.0204C60.1279 86.7135 59.5818 87.4141 59.0427 88.122C58.5036 88.8299 57.9713 89.5453 57.446 90.268C55.263 93.0438 53.1885 95.8362 51.2223 98.6453C49.2561 101.454 47.3984 104.28 45.6491 107.122C43.8997 109.965 42.2588 112.823 40.7263 115.699C39.1938 118.574 37.7696 121.466 36.454 124.375C35.1383 127.284 33.931 130.209 32.8321 133.151C31.7332 136.093 30.7428 139.052 29.8607 142.027C28.9787 145.002 28.2051 147.994 27.5399 151.002C26.8746 154.011 26.3178 157.036 25.8694 160.077C25.4211 163.119 25.0811 166.177 24.8495 169.252C24.618 172.327 24.4948 175.419 24.4801 178.527C24.4654 181.635 24.5591 184.76 24.7612 187.901C24.9633 191.042 25.2738 194.2 25.6928 197.375C26.1117 200.55 26.6391 203.741 27.2749 206.949C27.9107 210.157 28.6549 213.381 29.5075 216.622C30.3601 219.863 31.3211 223.121 32.3906 226.395C33.4601 229.669 34.6379 232.96 35.9242 236.268C35.8276 236.39 35.7292 236.506 35.629 236.616C35.5288 236.726 35.4269 236.831 35.3231 236.93C35.2194 237.029 35.1138 237.122 35.0065 237.21C34.8992 237.298 34.7901 237.38 34.6792 237.456C34.5684 237.533 34.4557 237.604 34.3413 237.669C34.2268 237.734 34.1106 237.793 33.9926 237.847C33.8746 237.901 33.7548 237.949 33.6333 237.992C33.5117 238.034 33.3884 238.071 33.2633 238.102C33.1381 238.134 33.0112 238.159 32.8825 238.179C32.7539 238.199 32.6234 238.214 32.4911 238.222C32.3589 238.231 32.2249 238.234 32.089 238.231C31.9532 238.229 31.8156 238.22 31.6763 238.206C31.5369 238.192 31.3957 238.173 31.2528 238.148C31.1099 238.122 30.9651 238.091 30.8186 238.055C30.6722 238.018 30.5239 237.976 30.3738 237.928C30.2237 237.881 30.0719 237.827 29.9183 237.768C29.2053 237.167 28.5088 236.555 27.8289 235.934C27.149 235.313 26.4856 234.682 25.8388 234.04C25.1919 233.399 24.5616 232.748 23.9478 232.087C23.334 231.426 22.7368 230.755 22.1561 230.074C21.5754 229.394 21.0113 228.703 20.4636 228.002C19.916 227.301 19.3849 226.591 18.8704 225.87C18.3559 225.149 17.8579 224.419 17.3764 223.678C16.895 222.938 16.43 222.187 15.9817 221.427C15.5333 220.666 15.1015 219.896 14.6862 219.116C14.2709 218.335 13.8722 217.545 13.49 216.745C13.1078 215.945 12.7421 215.135 12.393 214.315C12.0439 213.495 11.7114 212.665 11.3953 211.825C11.0793 210.985 10.7799 210.135 10.4969 209.275C10.214 208.415 9.94765 207.545 9.69783 206.666C9.44801 205.786 9.21473 204.896 8.99801 203.997C8.78129 203.097 8.58111 202.188 8.39749 201.268C7.93568 199.215 7.50925 197.164 7.1182 195.114C6.72715 193.065 6.37148 191.018 6.05119 188.973C5.7309 186.928 5.44598 184.884 5.19645 182.843C4.94691 180.802 4.73276 178.763 4.55398 176.726C4.37521 174.689 4.23181 172.654 4.1238 170.621C4.01578 168.588 3.94314 166.557 3.90589 164.528C3.86863 162.499 3.86675 160.472 3.90026 158.447C3.93376 156.422 4.00265 154.4 4.10691 152.379C4.21118 150.358 4.35082 148.339 4.52585 146.322C4.70087 144.306 4.91128 142.291 5.15707 140.278C5.40285 138.265 5.68402 136.255 6.00057 134.246C6.31712 132.237 6.66905 130.231 7.05637 128.226C7.44368 126.221 7.86637 124.219 8.32445 122.218C8.78253 120.218 9.27598 118.219 9.80482 116.223C10.3337 114.226 10.8979 112.232 11.4975 110.239C12.0971 108.247 12.7321 106.256 13.4024 104.268C13.7517 103.465 14.1078 102.667 14.4707 101.873C14.8337 101.079 15.2034 100.29 15.5801 99.5057C15.9567 98.7212 16.3401 97.9414 16.7305 97.1661C17.1208 96.3909 17.5179 95.6202 17.9219 94.8542C18.3259 94.0881 18.7368 93.3267 19.1545 92.5699C19.5722 91.8131 19.9967 91.0609 20.4281 90.3133C20.8595 89.5657 21.2977 88.8227 21.7428 88.0843C22.1879 87.3459 22.6398 86.6122 23.0986 85.883C23.5574 85.1538 24.023 84.4293 24.4955 83.7094C24.9679 82.9894 25.4473 82.2741 25.9334 81.5634C26.4196 80.8527 26.9126 80.1465 27.4125 79.445C27.9124 78.7435 28.4191 78.0466 28.9326 77.3543C29.4462 76.6621 29.9666 75.9744 30.4939 75.2913C31.0212 74.6082 31.5553 73.9298 32.0962 73.2559C32.6372 72.582 33.185 71.9128 33.7397 71.2481C34.2944 70.5835 34.8559 69.9234 35.4242 69.268L37.6902 67.1133L39.9562 64.9585L42.2221 62.8037L44.4881 60.649L46.7657 58.5141L49.0434 56.3792L51.321 54.2443L53.5987 52.1094L55.888 49.9943L58.1773 47.8792L60.4667 45.7642L62.756 43.6491L65.057 41.5538L67.3579 39.4585L69.6589 37.3633L71.9599 35.268L71.1528 35.1204L70.3456 34.9729L69.5367 34.8407L68.7278 34.7085L67.9171 34.5917L67.1065 34.4749L66.294 34.3734L65.4816 34.272L64.6674 34.1859L63.8532 34.0999L63.0372 34.0292L62.2213 33.9585L61.4036 33.9032L60.5859 33.8479L59.7664 33.8079L58.947 33.768C58.6863 33.6743 58.4309 33.5753 58.1806 33.4711C57.9303 33.367 57.6853 33.2576 57.4455 33.143C57.2057 33.0284 56.971 32.9087 56.7416 32.7837C56.5122 32.6587 56.2881 32.5285 56.0691 32.3931C55.8501 32.2576 55.6364 32.117 55.4278 31.9712C55.2193 31.8254 55.016 31.6743 54.8179 31.5181C54.6198 31.3618 54.4269 31.2004 54.2392 31.0337C54.0515 30.8671 53.8691 30.6952 53.6918 30.5181C53.5146 30.341 53.3425 30.1588 53.1757 29.9713C53.0089 29.7838 52.8473 29.5911 52.6909 29.3931C52.5345 29.1952 52.3833 28.9921 52.2374 28.7838C52.0914 28.5754 51.9507 28.3619 51.8151 28.1431C51.6796 27.9244 51.5493 27.7004 51.4242 27.4713C51.2991 27.2421 51.1792 27.0077 51.0645 26.7681C50.9499 26.5285 50.8404 26.2837 50.7362 26.0337C50.6319 25.7837 50.5329 25.5284 50.4391 25.268C50.3172 25.0099 50.1983 24.7511 50.0825 24.4914C49.9666 24.2318 49.8539 23.9713 49.7441 23.71C49.6344 23.4488 49.5278 23.1867 49.4242 22.9238C49.3206 22.661 49.22 22.3973 49.1225 22.1328C49.025 21.8684 48.9306 21.6031 48.8392 21.3371C48.7479 21.071 48.6596 20.8042 48.5743 20.5365C48.489 20.2688 48.4068 20.0004 48.3277 19.7311C48.2486 19.4619 48.1725 19.1918 48.0995 18.921C48.0265 18.6502 47.9565 18.3785 47.8896 18.1061C47.8227 17.8336 47.7589 17.5604 47.6981 17.2864C47.6374 17.0124 47.5796 16.7375 47.525 16.4619C47.4704 16.1863 47.4188 15.9099 47.3703 15.6327C47.3217 15.3554 47.2763 15.0774 47.2339 14.7986C47.1915 14.5198 47.1522 14.2402 47.1159 13.9599C47.0796 13.6795 47.0464 13.3983 47.0163 13.1163C46.9862 12.8343 46.9591 12.5516 46.9351 12.268L50.9226 11.9576L54.9101 11.6472L58.8844 11.2827L62.8588 10.9182L66.8199 10.4995L70.7811 10.0808L74.7291 9.60788L78.6771 9.135L82.6119 8.60794L86.5467 8.08087L90.4683 7.49961L94.39 6.91834L98.2985 6.28287L102.207 5.64739L106.102 4.9577C106.102 4.9577 103.659 4.86006 106.261 4.94909Z" fill="currentColor" fill-rule="evenodd" opacity="1" stroke="none"/>
</g>
</svg>
